<svg xmlns="http://www.w3.org/2000/svg" width="404" height="46" viewBox="0 0 404 46">
    <path fill="#C7ED9E" fill-rule="evenodd" d="M10 46C4.57 46 .152 41.673.004 36.28L0 36V10.125c.903-.997 2.037-1.938 3.454-2.775.931-.551 2.098.013 2.33 1.113.215 1.014.394 2.346.35 3.838 1.372-.212 2.774-.326 4.201-.326 2.974 0 5.84.479 8.539 1.36.13-1.803.645-3.772 1.738-5.882.512-.988 1.784-1.165 2.534-.364 1.433 1.53 3.425 4.285 3.84 8.065 1.479-1.466 3.66-2.594 6.837-2.373.756.052 1.243.864.978 1.612-.586 1.661-1.963 4.323-4.927 5.625 2.427 2.357 4.474 5.143 6.025 8.25 2.909-1.597 6.106-2.687 9.488-3.16-.859-1.831-1.234-4.232-.23-7.23.247-.733 1.096-1.001 1.69-.542 1.475 1.137 3.805 3.57 3.765 7.543 1.564.08 3.097.29 4.586.623 4.44-10.81 14.637-18.374 26.511-18.374 1.945 0 3.846.205 5.683.592.048-1.326.52-2.807 1.872-4.239.358-.38.96-.282 1.203.19.533 1.039 1.197 2.932.531 5.073.447.16.888.332 1.324.515.234-.755.556-1.536.984-2.342.42-.79 1.444-.92 2.04-.268 1.075 1.174 2.54 3.23 2.954 6.015.504.374.995.765 1.475 1.171.434-1.634 1.461-3.334 3.635-4.618.541-.32 1.22.007 1.354.647.343 1.624.54 4.638-1.756 7.17 2.602 3 4.646 6.547 5.952 10.464 1.798-.851 3.694-1.515 5.664-1.967-1.053-1.338-1.815-3.253-1.495-5.96.076-.645.724-1.025 1.288-.762 1.487.692 4.008 2.404 4.452 6.102.262-.018.524-.03.787-.04-.21-1.616.054-3.836 2.36-5.57.378-.283.907-.098 1.056.365.365 1.132.721 3.228-.592 5.233 2.359.147 4.642.588 6.815 1.297 3.638-4.91 9.298-8.068 15.661-8.068 1.144 0 2.264.109 3.355.305.337-1.542 1.235-3.184 3.3-4.403.48-.284 1.083.007 1.203.575.244 1.153.398 3.096-.588 4.979 3.54 1.47 6.585 3.977 8.794 7.173.946-2.476 2.159-4.809 3.596-6.962-2.09-1.245-4.082-3.472-4.821-7.442-.166-.888.534-1.687 1.388-1.6 1.92.197 5.149 1.021 7.368 4.17.284-.294.574-.581.868-.863-.972-1.63-1.558-3.913-.52-6.871.215-.614.933-.829 1.428-.435.934.743 2.273 2.127 2.827 4.217.528-.375 1.065-.735 1.613-1.078-.077-2.191.55-5.16 3.903-7.14.542-.32 1.22.007 1.354.647.2.94.343 2.347-.011 3.856 3.55-1.39 7.387-2.155 11.396-2.155 1.217 0 2.416.075 3.599.211C197.016 3.152 198.565 1 203.522 1c1.219 0 1.988 2.042 2.308 6.126.83-.215 1.713.335 1.91 1.281.214 1.016.392 2.35.348 3.844 1.362-.212 2.753-.326 4.17-.326 2.951 0 5.796.48 8.475 1.362.128-1.806.64-3.778 1.724-5.89.509-.99 1.772-1.168 2.516-.365 1.422 1.532 3.4 4.29 3.81 8.076 1.47-1.468 3.634-2.598 6.787-2.376.75.052 1.234.865.971 1.614-.582 1.664-1.948 4.33-4.89 5.634 2.409 2.36 4.44 5.15 5.98 8.261 2.886-1.598 6.06-2.69 9.417-3.164-.853-1.834-1.225-4.238-.228-7.24.245-.735 1.087-1.003 1.677-.544 1.463 1.14 3.776 3.575 3.736 7.555 1.553.08 3.074.291 4.553.623 4.406-10.825 14.527-18.4 26.312-18.4 1.931 0 3.817.205 5.641.592.047-1.328.517-2.81 1.858-4.245.355-.38.953-.282 1.193.19.53 1.04 1.189 2.937.528 5.08.443.161.88.334 1.314.517.232-.756.551-1.538.977-2.346.416-.79 1.433-.92 2.025-.268 1.066 1.175 2.52 3.235 2.931 6.024.5.374.988.766 1.464 1.173.43-1.637 1.45-3.34 3.608-4.626.537-.32 1.21.008 1.344.648.34 1.627.535 4.646-1.743 7.182 2.582 3.004 4.611 6.556 5.907 10.478 1.785-.852 3.667-1.517 5.622-1.969-1.045-1.34-1.802-3.258-1.484-5.969.076-.646.719-1.026 1.279-.763 1.475.693 3.978 2.407 4.419 6.111.259-.018.52-.03.78-.04-.208-1.619.054-3.842 2.344-5.578.374-.284.899-.099 1.047.365.362 1.133.716 3.233-.587 5.241 2.34.147 4.607.589 6.763 1.299 3.611-4.917 9.229-8.08 15.545-8.08 1.135 0 2.246.109 3.33.305.334-1.544 1.225-3.188 3.274-4.41.478-.284 1.075.008 1.195.576.241 1.155.395 3.101-.584 4.987 3.513 1.473 6.536 3.983 8.728 7.184.94-2.48 2.143-4.816 3.569-6.973-2.074-1.247-4.051-3.477-4.785-7.453-.164-.889.53-1.69 1.378-1.602 1.906.197 5.11 1.023 7.313 4.175.282-.294.57-.581.862-.864-.965-1.632-1.547-3.918-.517-6.88.214-.616.926-.83 1.418-.436.927.744 2.255 2.13 2.806 4.223.523-.375 1.056-.736 1.6-1.079-.076-2.195.546-5.168 3.874-7.152.538-.32 1.21.009 1.344.649.198.94.34 2.35-.01 3.862 3.522-1.393 7.33-2.159 11.31-2.159 1.208 0 2.398.076 3.572.212C397.543 3.088 400.275 1.218 404 0v36c0 5.43-4.327 9.848-9.72 9.996L394 46H10zm46.399-31.421c.434 1.885.645 5.744-3.818 8.325-.564.326-1.29.01-1.425-.613-.421-1.956-.607-5.914 3.842-8.326.56-.303 1.26.008 1.4.614zm202.127-.047c.435 1.888.647 5.753-3.826 8.338-.565.326-1.294.01-1.428-.614-.423-1.958-.61-5.923 3.85-8.338.56-.304 1.264.008 1.404.614zM144.26 8.417c1.195 1.377 3.08 4.478.544 8.47-.32.504-1.06.545-1.447.087-1.216-1.441-3.126-4.636-.525-8.481.328-.484 1.044-.519 1.428-.076zm202.326-.056c1.197 1.38 3.087 4.485.545 8.482-.322.505-1.063.546-1.45.088-1.22-1.443-3.134-4.642-.527-8.493.328-.486 1.047-.52 1.432-.077z"/>
</svg>
